<?xml version="1.0" encoding="utf-8"?>
<!-- Generator: Adobe Illustrator 24.3.0, SVG Export Plug-In . SVG Version: 6.00 Build 0)  -->
<svg version="1.1" id="Layer_1" xmlns="http://www.w3.org/2000/svg" xmlns:xlink="http://www.w3.org/1999/xlink" x="0px" y="0px"
	 viewBox="0 0 105.8 37" style="enable-background:new 0 0 105.8 37;" xml:space="preserve">
<style type="text/css">
	.st0{fill:#FFFFFF;}
	.st1{fill:#7473B6;}
	.st2{fill:#5F5B9D;}
</style>
<path class="st0" d="M86.9,36.5h-8.6V0.1h8.6c5.8,0,10.5,1.7,13.9,5c3.4,3.3,5.1,7.8,5.1,13.2s-1.7,9.9-5.1,13.2
	S92.7,36.5,86.9,36.5z M80.4,34.4h6.5c5.3,0,9.5-1.5,12.4-4.4s4.4-6.8,4.4-11.7s-1.5-8.8-4.5-11.7c-3-2.9-7.1-4.4-12.4-4.4h-6.5
	L80.4,34.4z"/>
<polygon class="st0" points="27.7,37 25.6,37 25.6,5.5 13.9,18.5 2.1,5.5 2.1,37 0,37 0,0 13.9,15.4 27.7,0 "/>
<polygon class="st1" points="65,4.6 67.9,4.6 63.8,0.2 58.6,0.2 59.7,2.3 62.9,2.3 "/>
<polygon class="st0" points="47.5,0.2 46.5,2.3 52.8,2.3 53,11.3 53.3,2.3 53.3,2.3 53.3,0.2 "/>
<polygon class="st1" points="74.1,10.7 64,10.7 65.1,12.8 73.3,12.8 73.4,12.9 56.1,30.5 53,36.7 53,36.7 76.4,12.8 "/>
<polygon class="st2" points="64,10.7 59.7,2.3 59.7,2.3 58.6,0.2 53.3,0.2 53.3,2.3 59,2.3 63.9,10.7 53.4,10.7 53.4,12.8 
	64.4,12.8 56,30.6 53,33.7 53,36.7 56.1,30.5 56.1,30.5 65.1,12.8 "/>
<polygon class="st0" points="42.2,10.7 41.1,12.8 52.7,12.8 53,33.7 50,30.5 53,36.7 53,33.7 53.1,33.7 53.4,12.8 53.4,10.7 "/>
<path class="st0" d="M50,30.5l-8.9-17.8l0,0l1.1-2.1l0,0l4.4-8.5l0,0l1-2h-4.8L30,12.8h10.3L50,30.5L38.4,18.7h-2.9l17.6,18l0,0
	L50,30.5z M35.1,10.7l8.4-8.4h2.3l-3.7,8.4H35.1z"/>
</svg>
