<?xml version="1.0" encoding="utf-8"?>
<!-- Generator: Adobe Illustrator 25.0.0, SVG Export Plug-In . SVG Version: 6.00 Build 0)  -->
<svg version="1.1" id="Layer_2_1_" xmlns="http://www.w3.org/2000/svg" xmlns:xlink="http://www.w3.org/1999/xlink" x="0px" y="0px"
	 viewBox="0 0 269 126" style="enable-background:new 0 0 269 126;" xml:space="preserve">
<style type="text/css">
	.st0{fill:#E6D7F9;}
	.st1{fill:#7373BF;}
	.st2{fill:#5F5A9D;}
</style>
<g id="XMLID_14_">
	<path id="XMLID_13_" class="st0" d="M205.1,94.9h-18.5V16.8h18.5c12.5,0,22.5,3.6,29.7,10.8c7.2,7.2,10.9,16.7,10.9,28.3
		c0,11.7-3.6,21.2-10.9,28.3C227.8,91.3,217.7,94.9,205.1,94.9z M191.2,90.4h14c11.4,0,20.3-3.2,26.6-9.4c6.3-6.2,9.5-14.7,9.5-25.1
		s-3.2-18.8-9.6-25.1c-6.4-6.3-15.3-9.5-26.6-9.5h-14v69.1H191.2z"/>
</g>
<g id="XMLID_17_">
	<polygon id="XMLID_11_" class="st0" points="80.1,96 75.6,96 75.6,28.4 50.4,56.4 25.1,28.4 25.1,96 20.6,96 20.6,16.7 50.4,49.7 
		80.1,16.7 	"/>
</g>
<polygon id="XMLID_30_" class="st1" points="158.3,26.5 164.5,26.5 155.6,17.1 144.6,17.1 146.9,21.6 153.6,21.6 "/>
<polygon id="XMLID_3_" class="st2" points="120.8,17.1 118.5,21.6 132,21.6 132.6,40.9 133.3,21.6 133.3,21.6 133.3,17.1 "/>
<polygon id="XMLID_60_" class="st1" points="177.8,39.5 156.1,39.5 158.4,44 176,44 176.2,44.3 139.2,82.1 132.6,95.3 132.6,95.3 
	182.7,44.1 "/>
<polygon id="XMLID_18_" class="st2" points="156.1,39.5 146.9,21.6 146.9,21.6 144.6,17.1 133.3,17.1 133.3,21.6 145.5,21.6 
	155.9,39.5 133.3,39.5 133.3,44 156.9,44 139,82.4 132.6,88.9 132.6,95.3 139.2,82.1 139.2,82.1 158.4,44 "/>
<polygon id="XMLID_9_" class="st2" points="109.3,39.5 107,44 131.9,44 132.6,88.8 126,82.1 132.6,95.3 132.6,88.9 132.7,88.8 
	133.3,44 133.3,39.5 "/>
<path id="XMLID_8_" class="st1" d="M126,82.1L106.9,44l0,0l2.3-4.5l0,0l9.3-18.1l0,0l2.2-4.3h-10.5L83.3,44h22.1l20.4,37.9
	l-24.6-25.2h-6.3l37.8,38.6l0,0L126,82.1z M94.2,39.5l18-17.9h4.9l-8,17.9H94.2z"/>
<g id="XMLID_4_">
	<g id="XMLID_92_">
		<polygon id="XMLID_117_" class="st0" points="227,115.3 218.5,105.7 218.5,114.8 217.4,114.8 217.4,102.9 226,112.5 226,103.3 
			227,103.3 		"/>
	</g>
	<g id="XMLID_62_">
		<path id="XMLID_127_" class="st0" d="M93.7,115c-3.2,0-4.2-2.2-4.3-2.4l0.6-0.2c0,0.1,0.9,2,3.7,2c1.5,0,3-0.7,3-2.4
			c0-1.6-1.3-2.3-3-3c-1.8-0.8-3.5-1.8-3.5-3.3c0-1.6,1.2-2.7,3.2-2.7c2.1,0,3,1.4,3,1.5l-0.5,0.3c0,0-0.8-1.2-2.5-1.2
			c-1.6,0-2.6,0.8-2.6,2.1c0,1.2,1.6,2.1,3.1,2.8c1.4,0.6,3.3,1.5,3.3,3.6C97.3,114,95.4,115,93.7,115z"/>
	</g>
	<g id="XMLID_110_">
		<polygon id="XMLID_116_" class="st0" points="198.8,114.8 197.7,114.8 197.7,105.8 192.8,111.5 187.9,105.8 187.9,114.8 
			186.9,114.8 186.9,102.9 192.8,109.9 198.8,102.9 		"/>
	</g>
	<g id="XMLID_111_">
		<path id="XMLID_115_" class="st0" d="M246.5,115.1c-3.3,0-4.5-2.3-4.5-2.4l1-0.5c0,0.1,0.9,1.8,3.5,1.8c1.2,0,2.7-0.5,2.7-2
			c0-1.4-1.2-2-2.8-2.7c-1.9-0.8-3.6-1.8-3.6-3.4c0-1.4,0.9-2.8,3.4-2.8c2.2,0,3.1,1.5,3.2,1.5l-0.9,0.6l0.5-0.3l-0.5,0.3
			c0,0-0.7-1-2.3-1c-0.9,0-2.4,0.2-2.4,1.7c0,1,1.5,1.8,3,2.4s3.5,1.5,3.5,3.7C250.2,113.8,248.7,115.1,246.5,115.1z"/>
	</g>
	<g id="XMLID_86_">
		<g id="XMLID_64_">
			<path id="XMLID_165_" class="st0" d="M161.2,114.8H157v-11.7h3.8c2.5,0,5.9,2,5.9,5.9C166.7,112.6,163.8,114.8,161.2,114.8z
				 M158,113.7h3.1c1.8,0,4.4-1.5,4.4-4.7c0-3.1-2.8-4.8-4.8-4.8H158V113.7z"/>
		</g>
	</g>
	<g id="XMLID_106_">
		<g id="XMLID_107_">
			<path id="XMLID_160_" class="st0" d="M235,114.8h-4.2v-11.7h3.8c2.5,0,5.9,2,5.9,5.9C240.5,112.6,237.6,114.8,235,114.8z
				 M231.9,113.7h3.1c1.8,0,4.4-1.5,4.4-4.7c0-3.1-2.8-4.8-4.8-4.8h-2.7V113.7z"/>
		</g>
	</g>
	<g id="XMLID_90_">
		<g id="XMLID_55_">
			<rect id="XMLID_157_" x="169.6" y="103.2" class="st0" width="1.1" height="11.6"/>
		</g>
	</g>
	<g id="XMLID_91_">
		<path id="XMLID_112_" class="st0" d="M208.1,115c-3.7,0-6.4-2.5-6.4-6s2.7-6,6.4-6s6.4,2.5,6.4,6S211.8,115,208.1,115z M208.1,104
			c-3.1,0-5.3,2.1-5.3,5s2.2,5,5.3,5s5.3-2.1,5.3-5S211.2,104,208.1,104z"/>
	</g>
	<polygon id="XMLID_52_" class="st0" points="15.7,102.9 15.7,114.8 16.3,114.8 16.3,104.5 21.4,110.5 21.6,110.2 21.8,110.5 
		26.9,104.5 26.9,114.8 27.5,114.8 27.5,102.9 21.6,109.8 	"/>
	<path id="XMLID_120_" class="st0" d="M30.3,114.8H31l1-2.3h7l1,2.3h0.6L35.4,103L30.3,114.8z M32.2,111.9l3.2-7.4l3.2,7.4H32.2z"/>
	<path id="XMLID_123_" class="st0" d="M50.9,107.5c0-2.6-2-4.3-3.8-4.3h-3.6v11.6h0.6v-3.1c0.6,0,2-0.1,3.1-0.1c0.1,0,0.3,0,0.4,0
		l2.6,3.2H51l-2.7-3.4C49.6,110.9,50.9,109.5,50.9,107.5z M44.1,111v-7.3h3c1.6,0,3.2,1.4,3.2,3.7c0,2.2-1.8,3.5-3.1,3.5
		C46.1,111,44.7,111,44.1,111z"/>
	<path id="XMLID_12_" class="st0" d="M117.8,107.5c0-2.6-2-4.3-3.8-4.3h-3.6v11.6h0.6v-3.1c0.6,0,2-0.1,3.1-0.1c0.1,0,0.3,0,0.4,0
		l2.6,3.2h0.8l-2.7-3.4C116.4,110.9,117.8,109.5,117.8,107.5z M110.9,111v-7.3h3c1.6,0,3.2,1.4,3.2,3.7c0,2.2-1.8,3.5-3.1,3.5
		C112.9,111,111.5,111,110.9,111z"/>
	<polygon id="XMLID_124_" class="st0" points="66,110.7 71.9,110.7 71.9,110 66,110 66,103.8 72.6,103.8 72.6,103.2 65.4,103.2 
		65.4,114.8 72.9,114.8 72.9,114.2 66,114.2 	"/>
	<polygon id="XMLID_25_" class="st0" points="121.8,110.7 127.7,110.7 127.7,110 121.8,110 121.8,103.8 128.4,103.8 128.4,103.2 
		121.2,103.2 121.2,114.8 128.7,114.8 128.7,114.2 121.8,114.2 	"/>
	<polygon id="XMLID_39_" class="st0" points="132.5,110.7 138.4,110.7 138.4,110 132.5,110 132.5,103.8 139.1,103.8 139.1,103.2 
		131.9,103.2 131.9,114.8 139.3,114.8 139.3,114.2 132.5,114.2 	"/>
	<polygon id="XMLID_125_" class="st0" points="83.4,103.2 74.6,103.2 74.6,103.8 78.7,103.8 78.7,114.8 79.3,114.8 79.3,103.8 
		83.4,103.8 	"/>
	<polygon id="XMLID_5_" class="st0" points="107.6,103.2 98.9,103.2 98.9,103.8 103,103.8 103,114.8 103.6,114.8 103.6,103.8 
		107.6,103.8 	"/>
	<polygon id="XMLID_53_" class="st0" points="149.9,103.2 141.1,103.2 141.1,103.8 145.2,103.8 145.2,114.8 145.8,114.8 
		145.8,103.8 149.9,103.8 	"/>
	<polygon id="XMLID_126_" class="st0" points="62.2,103.2 61.4,103.2 55,110.4 55,103.2 54.4,103.2 54.4,114.8 55,114.8 55,111.3 
		56.8,109.3 61.7,114.8 62.5,114.8 57.2,108.9 	"/>
	<g id="XMLID_104_">
		<path id="XMLID_131_" class="st0" d="M183,114.8h1.2l-5.3-12.1l-5.3,12.1h1.2l0.8-1.8h6.7L183,114.8z M176,111.9l2.9-6.6l2.9,6.6
			H176z"/>
	</g>
</g>
</svg>
